Coordinates
nRows=7
nColumns=24

# SIMM Motion File Header:
name Coordinates
datacolumns 24
datarows 7
otherdata 1
range 1.36132999999999990000 1.36732999999999990000
endheader
time	pelvis_tx	pelvis_ty	pelvis_tz	pelvis_tilt	pelvis_list	pelvis_rotation	hip_flexion_r	hip_adduction_r	hip_rotation_r	knee_angle_r	ankle_angle_r	subtalar_angle_r	mtp_angle_r	hip_flexion_l	hip_adduction_l	hip_rotation_l	knee_angle_l	ankle_angle_l	subtalar_angle_l	mtp_angle_l	lumbar_extension	lumbar_bending	lumbar_rotation
      1.36132999999999990000	      1.35892384980705350000	      0.81041845150099701000	     -0.19972337691195560000	     -1.95025556766206300000	      0.89480093036225838000	      0.76232542522828284000	      1.39001277632969120000	      3.13351570041582810000	     -2.81170818374245490000	     -2.85978020948611400000	      2.23473705229138590000	     -0.00000000000016044739	      0.00000000000101299748	     20.73217138533419400000	     -1.17982151752912690000	     -1.93502385241389940000	    -29.72748815460895200000	      4.17022659221939130000	      0.00000000000010250751	     -0.00000000000116893511	     -0.93143048657376404000	     -0.65110311103419338000	      2.63612164324997210000
      1.36233000000000000000	      1.35944186255917910000	      0.81037047165309639000	     -0.19967656247235829000	     -1.94620416221300680000	      0.90374766590702116000	      0.72676518871434537000	      1.33721035031079060000	      3.13037646373096210000	     -2.81455819749094260000	     -2.84701823028300940000	      2.26785745567792230000	     -0.00000000000016073094	      0.00000000000101472197	     20.74918976324959600000	     -1.17326810059678530000	     -1.95868531140505660000	    -29.50099382599479000000	      4.14817338649686820000	      0.00000000000010273726	     -0.00000000000117035773	     -0.93244267541286396000	     -0.65849175096806500000	      2.64679027775273830000
      1.36332999999999990000	      1.35996019866298920000	      0.81032224053345703000	     -0.19962981076085548000	     -1.94216659845810380000	      0.91264362670008692000	      0.69114546499878327000	      1.28442687767119270000	      3.12726254260445420000	     -2.81731187929819350000	     -2.83432342531152370000	      2.30096327997975350000	     -0.00000000000016101455	      0.00000000000101645007	     20.76601211545094100000	     -1.16692099415993540000	     -1.98277150397148220000	    -29.27430653253674500000	      4.12533540718667790000	      0.00000000000010297172	     -0.00000000000117179420	     -0.93335855578839444000	     -0.66584285782493213000	      2.65743218437683510000
      1.36433000000000000000	      1.36047950482185430000	      0.81027325559860086000	     -0.19958324723363613000	     -1.93817055978565600000	      0.92138726323806741000	      0.65534727967831308000	      1.23170026516945710000	      3.12422456815302050000	     -2.81977656528173440000	     -2.82183014303488510000	      2.33402536702749690000	     -0.00000000000016129838	      0.00000000000101818905	     20.78224639051012100000	     -1.16119281920956220000	     -2.00813189726374960000	    -29.04704034454684700000	      4.10014310711343640000	      0.00000000000010322029	     -0.00000000000117327224	     -0.93398551077321379000	     -0.67308136545079067000	      2.66799390736493170000
      1.36532999999999990000	      1.36099881098071940000	      0.81022427066374469000	     -0.19953668370641681000	     -1.93417452111320930000	      0.93013089977604602000	      0.61954909435785077000	      1.17897365266773320000	      3.12118659370158720000	     -2.82224125126527440000	     -2.80933686075824960000	      2.36708745407523270000	     -0.00000000000016158220	      0.00000000000101992802	     20.79848066556930100000	     -1.15546464425919000000	     -2.03349229055601110000	    -28.81977415655700300000	      4.07495080704019940000	      0.00000000000010346886	     -0.00000000000117475028	     -0.93461246575803314000	     -0.68031987307664765000	      2.67855563035302560000
      1.36633000000000000000	      1.36151906262608380000	      0.81017464085478552000	     -0.19949023945983937000	     -1.93017808915793570000	      0.93872619227403709000	      0.58358807740339591000	      1.12624216738459610000	      3.11822604051324430000	     -2.82443273565109100000	     -2.79698676808155030000	      2.39987071561349860000	     -0.00000000000016186340	      0.00000000000102165098	     20.81411269876545900000	     -1.15031497154040570000	     -2.05996358403965370000	    -28.59202703987443100000	      4.04828660842776690000	      0.00000000000010373179	     -0.00000000000117625863	     -0.93501281167490735000	     -0.68747160309940825000	      2.68905333288426360000
      1.36732999999999990000	      1.36203962943361480000	      0.81012479608779209000	     -0.19944383497347593000	     -1.92618152610838740000	      0.94727203675869553000	      0.54757278323761993000	      1.07350905784100380000	      3.11529129441259920000	     -2.82653315283766430000	     -2.78468440527150120000	      2.43256103531526340000	     -0.00000000000016214373	      0.00000000000102336860	     20.82954398467394000000	     -1.14535813289882200000	     -2.08680517758708860000	    -28.36411961362768300000	      4.02113177696893500000	      0.00000000000010399952	     -0.00000000000117777709	     -0.93533762123579844000	     -0.69459440725446742000	      2.69952969526321330000
